<svg width="40" height="40" viewBox="0 0 40 40" fill="none" xmlns="http://www.w3.org/2000/svg">
<rect width="40" height="40" rx="8" fill="url(#paint0_linear_1_583)"/>
<path d="M11 28C10.45 28 9.97917 27.8042 9.5875 27.4125C9.19583 27.0208 9 26.55 9 26V15H11V26H28V28H11ZM15 24C14.45 24 13.9792 23.8042 13.5875 23.4125C13.1958 23.0208 13 22.55 13 22V14C13 13.45 13.1958 12.9792 13.5875 12.5875C13.9792 12.1958 14.45 12 15 12H29C29.55 12 30.0208 12.1958 30.4125 12.5875C30.8042 12.9792 31 13.45 31 14V22C31 22.55 30.8042 23.0208 30.4125 23.4125C30.0208 23.8042 29.55 24 29 24H15ZM17 22C17 21.45 16.8042 20.9792 16.4125 20.5875C16.0208 20.1958 15.55 20 15 20V22H17ZM27 22H29V20C28.45 20 27.9792 20.1958 27.5875 20.5875C27.1958 20.9792 27 21.45 27 22ZM22 21C22.8333 21 23.5417 20.7083 24.125 20.125C24.7083 19.5417 25 18.8333 25 18C25 17.1667 24.7083 16.4583 24.125 15.875C23.5417 15.2917 22.8333 15 22 15C21.1667 15 20.4583 15.2917 19.875 15.875C19.2917 16.4583 19 17.1667 19 18C19 18.8333 19.2917 19.5417 19.875 20.125C20.4583 20.7083 21.1667 21 22 21ZM15 16C15.55 16 16.0208 15.8042 16.4125 15.4125C16.8042 15.0208 17 14.55 17 14H15V16ZM29 16V14H27C27 14.55 27.1958 15.0208 27.5875 15.4125C27.9792 15.8042 28.45 16 29 16Z" fill="#241A00"/>
<defs>
<linearGradient id="paint0_linear_1_583" x1="0" y1="0" x2="40" y2="40" gradientUnits="userSpaceOnUse">
<stop stop-color="#D4AF37"/>
<stop offset="1" stop-color="#BF953F"/>
</linearGradient>
</defs>
</svg>
