<svg width="200" height="200" viewBox="0 0 100 100" xmlns="http://www.w3.org/2000/svg">
  <defs>
    <linearGradient id="goldGradient" x1="0%" y1="0%" x2="100%" y2="100%">
      <stop offset="0%" style="stop-color:#d4af37;stop-opacity:1" />
      <stop offset="50%" style="stop-color:#f9e498;stop-opacity:1" />
      <stop offset="100%" style="stop-color:#d4af37;stop-opacity:1" />
    </linearGradient>
  </defs>
  
  <!-- Outer Gear -->
  <g fill="url(#goldGradient)">
    <path d="M50 20c-1.1 0-2 .9-2 2v4.1c-1.8.4-3.5 1-5.1 1.9l-2.9-2.9c-.8-.8-2-.8-2.8 0l-4.2 4.2c-.8.8-.8 2 0 2.8l2.9 2.9c-.9 1.6-1.5 3.3-1.9 5.1H30c-1.1 0-2 .9-2 2v6c0 1.1.9 2 2 2h4.1c.4 1.8 1 3.5 1.9 5.1l-2.9 2.9c-.8.8-.8 2 0 2.8l4.2 4.2c.8.8 2 .8 2.8 0l2.9-2.9c1.6.9 3.3 1.5 5.1 1.9V78c0 1.1.9 2 2 2h6c1.1 0 2-.9 2-2v-4.1c1.8-.4 3.5-1 5.1-1.9l2.9 2.9c.8.8 2 .8 2.8 0l4.2-4.2c.8-.8.8-2 0-2.8l-2.9-2.9c.9-1.6 1.5-3.3 1.9-5.1H70c1.1 0 2-.9 2-2v-6c0-1.1-.9-2-2-2h-4.1c-.4-1.8-1-3.5-1.9-5.1l2.9-2.9c.8-.8.8-2 0-2.8l-4.2-4.2c-.8-.8-2-.8-2.8 0l-2.9 2.9c-1.6-.9-3.3-1.5-5.1-1.9V22c0-1.1-.9-2-2-2h-6zM50 35c8.3 0 15 6.7 15 15s-6.7 15-15 15-15-6.7-15-15 6.7-15 15-15z" />
  </g>

  <!-- Inner Circle -->
  <circle cx="50" cy="50" r="10" fill="none" stroke="#d4af37" stroke-width="2" />

  <!-- WIP Text -->
  <text x="50" y="95" text-anchor="middle" font-family="sans-serif" font-size="8" font-weight="bold" fill="#d4af37">
    STITCHING...
  </text>
</svg>
